<svg xmlns="http://www.w3.org/2000/svg"  viewBox="0 0 128 128" width="128px" height="128px"><path fill="#fff" d="M104.8,113.5c2.1-1.2,2.9-4,1.6-6.1l-38.1-66c-1.2-2.1-4-2.9-6.1-1.6L27.3,59.9 c-2.1,1.2-2.9,4-1.6,6.1l31.7,55h34.5L104.8,113.5"/><path fill="#e2eef6" d="M33.4,61.6c-1.2-2.1-0.5-4.9,1.6-6.1L27.2,60c-2.1,1.2-2.9,4-1.6,6.1L57.4,121h10.3L33.4,61.6"/><path fill="#f16677" d="M30.1 73.8L72.8 49.2 97.4 91.9 54.7 116.5 30.1 73.8"/><path fill="#d85c6b" d="M38 69.3L37.9 69.3 30.2 73.8 54.8 116.5 62.6 112 38 69.3"/><path fill="#454b54" d="M91.8,124H57.4c-1.1,0-2.1-0.6-2.6-1.5L23,67.6c-1-1.7-1.3-3.7-0.7-5.7c0.5-1.9,1.8-3.5,3.5-4.5 l34.9-20.2c1.1-0.7,2.4-1,3.7-1c2.7,0,5.2,1.4,6.5,3.7l38.1,66c2.1,3.6,0.8,8.2-2.7,10.2l-13,7.5C92.9,123.9,92.4,124,91.8,124z M59.1,118H91l12.3-7.1c0.7-0.4,1-1.3,0.5-2l-38.1-66c-0.4-0.7-1.3-0.9-2-0.5L28.8,62.5c-0.5,0.3-0.6,0.7-0.7,0.9s-0.1,0.7,0.1,1.1 L59.1,118z"/><path fill="#454b54" d="M64.9 124H34c-1.7 0-3-1.3-3-3s1.3-3 3-3h30.9c1.7 0 3 1.3 3 3S66.6 124 64.9 124zM24 124c-.8 0-1.6-.3-2.1-.9-.6-.6-.9-1.3-.9-2.1s.3-1.6.9-2.1c1.1-1.1 3.1-1.1 4.2 0 .6.6.9 1.3.9 2.1s-.3 1.6-.9 2.1C25.6 123.7 24.8 124 24 124zM14 124c-.8 0-1.6-.3-2.1-.9-.6-.6-.9-1.3-.9-2.1s.3-1.6.9-2.1c1.1-1.1 3.1-1.1 4.2 0 .6.6.9 1.3.9 2.1s-.3 1.6-.9 2.1C15.6 123.7 14.8 124 14 124z"/></svg>