<svg xmlns="http://www.w3.org/2000/svg"  viewBox="0 0 128 128" width="128px" height="128px"><path fill="#fff" d="M50,38.5v-10c0-2.8,2.2-5,5-5h18c2.8,0,5,2.2,5,5v10"/><path fill="#454b54" d="M64,124c-1.1,0-2.1-0.6-2.6-1.5L47.4,98c-0.8-1.4-0.3-3.3,1.1-4.1c1.4-0.8,3.3-0.3,4.1,1.1L64,115l11.4-20c0.8-1.4,2.7-1.9,4.1-1.1s1.9,2.7,1.1,4.1l-14,24.5C66.1,123.4,65.1,124,64,124z"/><path fill="#fff" d="M78 96.5L64 119.5 50 96.5 50 38.5 78 38.5z"/><path fill="#f8e390" d="M78 96L64 96 64 96 64 39 78 39z"/><path fill="#454b54" d="M78,99H50c-1.7,0-3-1.3-3-3V39c0-1.7,1.3-3,3-3h28c1.7,0,3,1.3,3,3V96C81,97.7,79.7,99,78,99z M53,93.1h22V41.9H53V93.1z"/><path fill="#454b54" d="M78 41.5c-1.7 0-3-1.3-3-2.9v-9.8c0-1.1-.9-2-2-2H55c-1.1 0-2 .9-2 2v9.8c0 1.7-1.3 2.9-3 2.9s-3-1.3-3-2.9v-9.8c0-4.3 3.6-7.8 8-7.8h18c4.4 0 8 3.5 8 7.8v9.8C81 40.2 79.7 41.5 78 41.5zM64 124c-1.1 0-2.1-.6-2.6-1.5L47.5 97.6c-.7-1.3-.5-3 .6-3.9 1.5-1.3 3.7-.8 4.6.8l8.8 15.7c1.2 2 4.1 2 5.2 0l8.7-15.6c.7-1.3 2.2-1.9 3.6-1.5 1.8.6 2.6 2.7 1.7 4.4l-14 24.9C66.1 123.4 65.1 124 64 124z"/><path fill="#454b54" d="M64 124H39c-1.7 0-3-1.3-3-3s1.3-3 3-3h25c1.7 0 3 1.3 3 3S65.7 124 64 124zM29 124c-.8 0-1.6-.3-2.1-.9-.6-.6-.9-1.3-.9-2.1s.3-1.6.9-2.1c1.1-1.1 3.1-1.1 4.2 0 .6.6.9 1.3.9 2.1s-.3 1.6-.9 2.1C30.6 123.7 29.8 124 29 124zM19 124c-.8 0-1.6-.3-2.1-.9-.6-.6-.9-1.3-.9-2.1s.3-1.6.9-2.1c1.1-1.1 3.1-1.1 4.2 0 .6.6.9 1.3.9 2.1s-.3 1.6-.9 2.1C20.6 123.7 19.8 124 19 124zM9 124c-.8 0-1.6-.3-2.1-.9C6.3 122.6 6 121.8 6 121s.3-1.6.9-2.1c1.1-1.1 3.1-1.1 4.2 0 .6.6.9 1.3.9 2.1s-.3 1.6-.9 2.1C10.6 123.7 9.8 124 9 124z"/></svg>